<svg xmlns="http://www.w3.org/2000/svg" xmlns:xlink="http://www.w3.org/1999/xlink" width="500" zoomAndPan="magnify" viewBox="0 0 375 374.999991" height="500" preserveAspectRatio="xMidYMid meet" version="1.0"><defs><g/><clipPath id="3e56aeec47"><path d="M 110 141 L 274 141 L 274 250.625 L 110 250.625 Z M 110 141 " clip-rule="nonzero"/></clipPath><clipPath id="ef7b4ffcf2"><path d="M 33.894531 12.875 L 313.644531 12.875 L 313.644531 189 L 33.894531 189 Z M 33.894531 12.875 " clip-rule="nonzero"/></clipPath><clipPath id="f8e082d335"><path d="M 80 12.875 L 287 12.875 L 287 170 L 80 170 Z M 80 12.875 " clip-rule="nonzero"/></clipPath></defs><g fill="#ffffff" fill-opacity="1"><g transform="translate(39.775463, 318.657111)"><g><path d="M 14.609375 -33.734375 C 16.410156 -33.734375 18.164062 -33.472656 19.875 -32.953125 C 21.59375 -32.429688 22.863281 -31.914062 23.6875 -31.40625 L 24.890625 -30.59375 L 21.84375 -24.578125 C 21.601562 -24.734375 21.269531 -24.9375 20.84375 -25.1875 C 20.414062 -25.445312 19.613281 -25.789062 18.4375 -26.21875 C 17.257812 -26.644531 16.160156 -26.859375 15.140625 -26.859375 C 13.878906 -26.859375 12.90625 -26.59375 12.21875 -26.0625 C 11.539062 -25.53125 11.203125 -24.804688 11.203125 -23.890625 C 11.203125 -23.429688 11.363281 -23.007812 11.6875 -22.625 C 12.007812 -22.238281 12.554688 -21.820312 13.328125 -21.375 C 14.109375 -20.9375 14.789062 -20.582031 15.375 -20.3125 C 15.96875 -20.050781 16.878906 -19.648438 18.109375 -19.109375 C 20.253906 -18.203125 22.082031 -16.960938 23.59375 -15.390625 C 25.101562 -13.828125 25.859375 -12.054688 25.859375 -10.078125 C 25.859375 -8.179688 25.515625 -6.519531 24.828125 -5.09375 C 24.148438 -3.675781 23.210938 -2.566406 22.015625 -1.765625 C 20.828125 -0.960938 19.507812 -0.367188 18.0625 0.015625 C 16.625 0.410156 15.0625 0.609375 13.375 0.609375 C 11.925781 0.609375 10.503906 0.457031 9.109375 0.15625 C 7.722656 -0.132812 6.5625 -0.5 5.625 -0.9375 C 4.6875 -1.382812 3.84375 -1.820312 3.09375 -2.25 C 2.34375 -2.675781 1.796875 -3.035156 1.453125 -3.328125 L 0.921875 -3.78125 L 4.703125 -10.125 C 5.023438 -9.851562 5.460938 -9.507812 6.015625 -9.09375 C 6.578125 -8.675781 7.570312 -8.117188 9 -7.421875 C 10.4375 -6.734375 11.707031 -6.390625 12.8125 -6.390625 C 16 -6.390625 17.59375 -7.472656 17.59375 -9.640625 C 17.59375 -10.085938 17.476562 -10.503906 17.25 -10.890625 C 17.019531 -11.285156 16.613281 -11.675781 16.03125 -12.0625 C 15.457031 -12.457031 14.953125 -12.765625 14.515625 -12.984375 C 14.078125 -13.210938 13.351562 -13.5625 12.34375 -14.03125 C 11.34375 -14.5 10.601562 -14.851562 10.125 -15.09375 C 8.113281 -16.082031 6.554688 -17.320312 5.453125 -18.8125 C 4.359375 -20.300781 3.8125 -21.898438 3.8125 -23.609375 C 3.8125 -26.578125 4.910156 -29.003906 7.109375 -30.890625 C 9.304688 -32.785156 11.804688 -33.734375 14.609375 -33.734375 Z M 14.609375 -33.734375 "/></g></g></g><g fill="#ffffff" fill-opacity="1"><g transform="translate(73.025676, 318.657111)"><g><path d="M 21.359375 -33.125 L 21.359375 -26.5 L 9.953125 -26.5 L 9.953125 -19.921875 L 20.875 -19.921875 L 20.875 -13.296875 L 9.953125 -13.296875 L 9.953125 -6.625 L 21.359375 -6.625 L 21.359375 0 L 2.40625 0 L 2.40625 -33.125 Z M 21.359375 -33.125 "/></g></g></g><g fill="#ffffff" fill-opacity="1"><g transform="translate(102.581725, 318.657111)"><g><path d="M 32.359375 -18.546875 L 32.359375 -11.359375 C 31.503906 -7.429688 29.628906 -4.453125 26.734375 -2.421875 C 23.847656 -0.398438 20.625 0.609375 17.0625 0.609375 C 12.59375 0.609375 8.785156 -1.0625 5.640625 -4.40625 C 2.492188 -7.757812 0.921875 -11.804688 0.921875 -16.546875 C 0.921875 -21.359375 2.457031 -25.425781 5.53125 -28.75 C 8.613281 -32.070312 12.457031 -33.734375 17.0625 -33.734375 C 22.445312 -33.734375 26.707031 -31.84375 29.84375 -28.0625 L 24.890625 -22.640625 C 23.128906 -25.484375 20.671875 -26.90625 17.515625 -26.90625 C 15.179688 -26.90625 13.191406 -25.894531 11.546875 -23.875 C 9.898438 -21.851562 9.078125 -19.410156 9.078125 -16.546875 C 9.078125 -13.734375 9.898438 -11.328125 11.546875 -9.328125 C 13.191406 -7.335938 15.179688 -6.34375 17.515625 -6.34375 C 19.441406 -6.34375 21.117188 -6.925781 22.546875 -8.09375 C 23.984375 -9.257812 24.703125 -10.804688 24.703125 -12.734375 L 17.0625 -12.734375 L 17.0625 -18.546875 Z M 32.359375 -18.546875 "/></g></g></g><g fill="#ffffff" fill-opacity="1"><g transform="translate(142.136105, 318.657111)"><g><path d="M 27.875 -33.125 L 27.875 -11.765625 C 27.875 -7.691406 26.773438 -4.609375 24.578125 -2.515625 C 22.378906 -0.429688 19.164062 0.609375 14.9375 0.609375 C 10.707031 0.609375 7.492188 -0.429688 5.296875 -2.515625 C 3.109375 -4.609375 2.015625 -7.691406 2.015625 -11.765625 L 2.015625 -33.125 L 9.5625 -33.125 L 9.5625 -13.96875 C 9.5625 -11.289062 9.984375 -9.429688 10.828125 -8.390625 C 11.671875 -7.347656 13.039062 -6.828125 14.9375 -6.828125 C 16.84375 -6.828125 18.210938 -7.347656 19.046875 -8.390625 C 19.890625 -9.429688 20.3125 -11.289062 20.3125 -13.96875 L 20.3125 -33.125 Z M 27.875 -33.125 "/></g></g></g><g fill="#ffffff" fill-opacity="1"><g transform="translate(178.277391, 318.657111)"><g><path d="M 2.40625 -33.125 L 14.25 -33.125 C 17.4375 -33.125 20.035156 -32.273438 22.046875 -30.578125 C 24.054688 -28.878906 25.0625 -26.453125 25.0625 -23.296875 C 25.0625 -20.859375 24.453125 -18.816406 23.234375 -17.171875 C 22.015625 -15.523438 20.359375 -14.363281 18.265625 -13.6875 L 29.671875 0 L 20.078125 0 L 9.953125 -13.09375 L 9.953125 0 L 2.40625 0 Z M 9.953125 -18.4375 L 10.84375 -18.4375 C 11.539062 -18.4375 12.128906 -18.445312 12.609375 -18.46875 C 13.085938 -18.5 13.632812 -18.59375 14.25 -18.75 C 14.863281 -18.914062 15.359375 -19.144531 15.734375 -19.4375 C 16.109375 -19.726562 16.429688 -20.15625 16.703125 -20.71875 C 16.972656 -21.28125 17.109375 -21.960938 17.109375 -22.765625 C 17.109375 -23.566406 16.972656 -24.25 16.703125 -24.8125 C 16.429688 -25.375 16.109375 -25.800781 15.734375 -26.09375 C 15.359375 -26.394531 14.863281 -26.625 14.25 -26.78125 C 13.632812 -26.945312 13.085938 -27.039062 12.609375 -27.0625 C 12.128906 -27.09375 11.539062 -27.109375 10.84375 -27.109375 L 9.953125 -27.109375 Z M 9.953125 -18.4375 "/></g></g></g><g fill="#ffffff" fill-opacity="1"><g transform="translate(213.294366, 318.657111)"><g><path d="M 9.953125 -33.125 L 9.953125 0 L 2.40625 0 L 2.40625 -33.125 Z M 9.953125 -33.125 "/></g></g></g><g fill="#ffffff" fill-opacity="1"><g transform="translate(231.928571, 318.657111)"><g><path d="M 2.40625 -33.125 L 12 -33.125 C 16.601562 -33.125 20.539062 -31.550781 23.8125 -28.40625 C 27.082031 -25.257812 28.71875 -21.316406 28.71875 -16.578125 C 28.71875 -11.816406 27.085938 -7.863281 23.828125 -4.71875 C 20.578125 -1.570312 16.632812 0 12 0 L 2.40625 0 Z M 9.953125 -6.75 L 11.125 -6.75 C 13.882812 -6.75 16.140625 -7.675781 17.890625 -9.53125 C 19.640625 -11.394531 20.53125 -13.734375 20.5625 -16.546875 C 20.5625 -19.359375 19.679688 -21.695312 17.921875 -23.5625 C 16.171875 -25.4375 13.90625 -26.375 11.125 -26.375 L 9.953125 -26.375 Z M 9.953125 -6.75 "/></g></g></g><g fill="#ffffff" fill-opacity="1"><g transform="translate(267.828946, 318.657111)"><g><path d="M 19.234375 -33.125 L 32.609375 0 L 24.5 0 L 22.046875 -6.625 L 9.4375 -6.625 L 6.984375 0 L -1.125 0 L 12.25 -33.125 Z M 19.46875 -13.25 L 15.78125 -22.890625 L 15.703125 -22.890625 L 12 -13.25 Z M 19.46875 -13.25 "/></g></g></g><g fill="#ffffff" fill-opacity="1"><g transform="translate(305.576414, 318.657111)"><g><path d="M 2.40625 -33.125 L 12 -33.125 C 16.601562 -33.125 20.539062 -31.550781 23.8125 -28.40625 C 27.082031 -25.257812 28.71875 -21.316406 28.71875 -16.578125 C 28.71875 -11.816406 27.085938 -7.863281 23.828125 -4.71875 C 20.578125 -1.570312 16.632812 0 12 0 L 2.40625 0 Z M 9.953125 -6.75 L 11.125 -6.75 C 13.882812 -6.75 16.140625 -7.675781 17.890625 -9.53125 C 19.640625 -11.394531 20.53125 -13.734375 20.5625 -16.546875 C 20.5625 -19.359375 19.679688 -21.695312 17.921875 -23.5625 C 16.171875 -25.4375 13.90625 -26.375 11.125 -26.375 L 9.953125 -26.375 Z M 9.953125 -6.75 "/></g></g></g><g fill="#ffffff" fill-opacity="1"><g transform="translate(92.38304, 351.865426)"><g><path d="M 1.546875 -21.21875 L 7.6875 -21.21875 C 10.632812 -21.21875 13.15625 -20.207031 15.25 -18.1875 C 17.34375 -16.175781 18.390625 -13.65625 18.390625 -10.625 C 18.390625 -7.570312 17.347656 -5.035156 15.265625 -3.015625 C 13.179688 -1.003906 10.65625 0 7.6875 0 L 1.546875 0 Z M 6.375 -4.328125 L 7.125 -4.328125 C 8.882812 -4.328125 10.328125 -4.921875 11.453125 -6.109375 C 12.578125 -7.296875 13.148438 -8.789062 13.171875 -10.59375 C 13.171875 -12.394531 12.609375 -13.894531 11.484375 -15.09375 C 10.359375 -16.289062 8.90625 -16.890625 7.125 -16.890625 L 6.375 -16.890625 Z M 6.375 -4.328125 "/></g></g></g><g fill="#ffffff" fill-opacity="1"><g transform="translate(125.551751, 351.865426)"><g><path d="M 0.59375 -10.625 C 0.59375 -13.6875 1.632812 -16.28125 3.71875 -18.40625 C 5.8125 -20.539062 8.335938 -21.609375 11.296875 -21.609375 C 14.253906 -21.609375 16.769531 -20.546875 18.84375 -18.421875 C 20.925781 -16.304688 21.96875 -13.707031 21.96875 -10.625 C 21.96875 -7.519531 20.945312 -4.90625 18.90625 -2.78125 C 16.863281 -0.664062 14.328125 0.390625 11.296875 0.390625 C 8.191406 0.390625 5.628906 -0.660156 3.609375 -2.765625 C 1.597656 -4.867188 0.59375 -7.488281 0.59375 -10.625 Z M 5.8125 -10.625 C 5.8125 -9.507812 5.984375 -8.492188 6.328125 -7.578125 C 6.671875 -6.660156 7.269531 -5.882812 8.125 -5.25 C 8.976562 -4.613281 10.035156 -4.296875 11.296875 -4.296875 C 13.085938 -4.296875 14.441406 -4.910156 15.359375 -6.140625 C 16.285156 -7.378906 16.75 -8.875 16.75 -10.625 C 16.75 -12.351562 16.28125 -13.835938 15.34375 -15.078125 C 14.40625 -16.328125 13.054688 -16.953125 11.296875 -16.953125 C 9.546875 -16.953125 8.191406 -16.328125 7.234375 -15.078125 C 6.285156 -13.835938 5.8125 -12.351562 5.8125 -10.625 Z M 5.8125 -10.625 "/></g></g></g><g fill="#ffffff" fill-opacity="1"><g transform="translate(162.293556, 351.865426)"><g><path d="M 1.546875 -21.21875 L 9.125 -21.21875 C 11.164062 -21.21875 12.828125 -20.671875 14.109375 -19.578125 C 15.398438 -18.492188 16.046875 -16.941406 16.046875 -14.921875 C 16.046875 -13.359375 15.65625 -12.046875 14.875 -10.984375 C 14.09375 -9.929688 13.035156 -9.191406 11.703125 -8.765625 L 19 0 L 12.859375 0 L 6.375 -8.390625 L 6.375 0 L 1.546875 0 Z M 6.375 -11.8125 L 6.9375 -11.8125 C 7.382812 -11.8125 7.757812 -11.816406 8.0625 -11.828125 C 8.375 -11.847656 8.726562 -11.910156 9.125 -12.015625 C 9.519531 -12.117188 9.835938 -12.265625 10.078125 -12.453125 C 10.316406 -12.640625 10.519531 -12.910156 10.6875 -13.265625 C 10.863281 -13.628906 10.953125 -14.066406 10.953125 -14.578125 C 10.953125 -15.097656 10.863281 -15.535156 10.6875 -15.890625 C 10.519531 -16.253906 10.316406 -16.53125 10.078125 -16.71875 C 9.835938 -16.90625 9.519531 -17.050781 9.125 -17.15625 C 8.726562 -17.257812 8.375 -17.316406 8.0625 -17.328125 C 7.757812 -17.347656 7.382812 -17.359375 6.9375 -17.359375 L 6.375 -17.359375 Z M 6.375 -11.8125 "/></g></g></g><g fill="#ffffff" fill-opacity="1"><g transform="translate(194.896732, 351.865426)"><g><path d="M 12.3125 -21.21875 L 20.890625 0 L 15.6875 0 L 14.125 -4.25 L 6.046875 -4.25 L 4.46875 0 L -0.71875 0 L 7.84375 -21.21875 Z M 12.46875 -8.484375 L 10.109375 -14.65625 L 10.0625 -14.65625 L 7.6875 -8.484375 Z M 12.46875 -8.484375 "/></g></g></g><g fill="#ffffff" fill-opacity="1"><g transform="translate(229.247895, 351.865426)"><g><path d="M 1.546875 -21.21875 L 7.6875 -21.21875 C 10.632812 -21.21875 13.15625 -20.207031 15.25 -18.1875 C 17.34375 -16.175781 18.390625 -13.65625 18.390625 -10.625 C 18.390625 -7.570312 17.347656 -5.035156 15.265625 -3.015625 C 13.179688 -1.003906 10.65625 0 7.6875 0 L 1.546875 0 Z M 6.375 -4.328125 L 7.125 -4.328125 C 8.882812 -4.328125 10.328125 -4.921875 11.453125 -6.109375 C 12.578125 -7.296875 13.148438 -8.789062 13.171875 -10.59375 C 13.171875 -12.394531 12.609375 -13.894531 11.484375 -15.09375 C 10.359375 -16.289062 8.90625 -16.890625 7.125 -16.890625 L 6.375 -16.890625 Z M 6.375 -4.328125 "/></g></g></g><g fill="#ffffff" fill-opacity="1"><g transform="translate(262.416603, 351.865426)"><g><path d="M 12.3125 -21.21875 L 20.890625 0 L 15.6875 0 L 14.125 -4.25 L 6.046875 -4.25 L 4.46875 0 L -0.71875 0 L 7.84375 -21.21875 Z M 12.46875 -8.484375 L 10.109375 -14.65625 L 10.0625 -14.65625 L 7.6875 -8.484375 Z M 12.46875 -8.484375 "/></g></g></g><g clip-path="url(#3e56aeec47)"><path fill="#ffffaf" d="M 148.625 180.945312 C 135.394531 180.945312 122.542969 179.902344 110.265625 177.945312 C 113.128906 182.714844 116.183594 187.375 119.417969 191.90625 C 136.175781 215.386719 157.800781 235.527344 183.324219 250.636719 C 225.699219 225.546875 257.34375 186.585938 273.773438 141.511719 C 244.988281 165.484375 199.636719 180.945312 148.625 180.945312 " fill-opacity="1" fill-rule="nonzero"/></g><path fill="#87cefa" d="M 161.675781 187.097656 C 152.421875 187.097656 143.4375 186.367188 134.847656 184.996094 C 136.851562 188.332031 138.988281 191.59375 141.25 194.761719 C 152.96875 211.179688 168.09375 225.265625 185.941406 235.832031 C 215.570312 218.285156 237.699219 191.042969 249.191406 159.519531 C 229.058594 176.285156 197.347656 187.097656 161.675781 187.097656 " fill-opacity="1" fill-rule="nonzero"/><g clip-path="url(#ef7b4ffcf2)"><path fill="#ffffaf" d="M 260.789062 12.886719 C 282.953125 30.191406 296.253906 52.296875 296.253906 76.382812 C 296.253906 131.855469 225.726562 176.824219 138.722656 176.824219 C 98.511719 176.824219 61.820312 167.21875 33.984375 151.40625 C 62.871094 173.960938 106.824219 188.359375 156.050781 188.359375 C 243.050781 188.359375 313.578125 143.386719 313.578125 87.914062 C 313.578125 58.082031 293.179688 31.285156 260.789062 12.886719 " fill-opacity="1" fill-rule="nonzero"/></g><g clip-path="url(#f8e082d335)"><path fill="#ffffaf" d="M 131.300781 169.414062 C 207.238281 169.414062 270.625 135.152344 285.515625 89.546875 C 286.058594 83.847656 286.367188 78.097656 286.4375 72.320312 L 248.199219 50.28125 L 183.324219 12.886719 L 80.214844 72.320312 C 80.605469 106.15625 89.238281 138.882812 104.636719 167.976562 C 113.304688 168.921875 122.210938 169.414062 131.300781 169.414062 " fill-opacity="1" fill-rule="nonzero"/></g><path fill="#87cefa" d="M 142.453125 159.519531 C 202.113281 159.519531 251.910156 132.601562 263.609375 96.777344 C 264.035156 92.296875 264.277344 87.78125 264.328125 83.242188 L 234.292969 65.929688 L 183.324219 36.546875 L 102.320312 83.242188 C 102.628906 109.824219 109.40625 135.535156 121.507812 158.390625 C 128.316406 159.128906 135.3125 159.519531 142.453125 159.519531 " fill-opacity="1" fill-rule="nonzero"/></svg>